<svg width="28" height="28" viewBox="0 0 28 28" fill="none" xmlns="http://www.w3.org/2000/svg">
<path d="M8.39926 22.3984C6.85228 22.3984 5.61328 23.6514 5.61328 25.1985C5.61328 26.7455 6.85228 27.9985 8.39926 27.9985C9.94623 27.9985 11.1993 26.7455 11.1993 25.1985C11.1993 23.6514 9.94623 22.3984 8.39926 22.3984Z" fill="#554AF0"/>
<path d="M9.94001 15.4H20.37C21.42 15.4 22.337 14.819 22.82 13.958L27.825 4.872C27.937 4.67598 28 4.44498 28 4.2C28 3.423 27.37 2.80002 26.6 2.80002H5.901L4.57097 0H0V2.80002H2.80002L7.83299 13.419L5.943 16.849C5.72597 17.255 5.59997 17.71 5.59997 18.2C5.59997 19.747 6.85302 21 8.39999 21H25.2V18.2H8.99502C8.79899 18.2 8.64504 18.0459 8.64504 17.85C8.64504 17.787 8.65901 17.731 8.68704 17.682L9.94001 15.4Z" fill="#554AF0"/>
<path d="M22.3993 22.3984C20.8523 22.3984 19.6133 23.6514 19.6133 25.1985C19.6133 26.7455 20.8523 27.9985 22.3993 27.9985C23.9463 27.9985 25.1993 26.7454 25.1993 25.1985C25.1993 23.6515 23.9463 22.3984 22.3993 22.3984Z" fill="#554AF0"/>
</svg>
