<svg width="26" height="26" viewBox="0 0 26 26" fill="none" xmlns="http://www.w3.org/2000/svg">
<path fill-rule="evenodd" clip-rule="evenodd" d="M21.2506 21.2508C17.6851 24.8167 12.4054 25.5871 8.0848 23.589C7.44698 23.3322 6.92405 23.1246 6.42692 23.1246C5.04222 23.1328 3.31868 24.4754 2.4229 23.5807C1.52713 22.6849 2.87079 20.96 2.87079 19.5669C2.87079 19.0697 2.67147 18.5561 2.4147 17.9171C0.41562 13.5972 1.18711 8.31574 4.75262 4.75101C9.30418 0.197775 16.699 0.197775 21.2506 4.74984C25.8103 9.31011 25.8021 16.6987 21.2506 21.2508Z" fill="#554AF0" stroke="#554AF0" stroke-width="1.5" stroke-linecap="round" stroke-linejoin="round"/>
<path d="M17.4775 13.5H17.5225" stroke="white" stroke-width="2" stroke-linecap="round" stroke-linejoin="round"/>
<path d="M12.8173 13.5H12.8623" stroke="white" stroke-width="2" stroke-linecap="round" stroke-linejoin="round"/>
<path d="M8.14156 13.5H8.18656" stroke="white" stroke-width="2" stroke-linecap="round" stroke-linejoin="round"/>
</svg>
