<svg width="19" height="22" viewBox="0 0 19 22" fill="none" xmlns="http://www.w3.org/2000/svg">
<path d="M12.3011 9.65639C11.4719 10.2063 10.4967 10.5 9.4987 10.5C8.16035 10.5 6.87758 9.97231 5.93236 9.0342C4.98728 8.09623 4.45703 6.82486 4.45703 5.5C4.45703 4.51194 4.75223 3.54575 5.30573 2.7236C5.85927 1.9014 6.64643 1.26001 7.56811 0.881112C8.48982 0.502198 9.50426 0.402998 10.483 0.596216C11.4617 0.789429 12.3602 1.26625 13.065 1.9658C13.7698 2.66531 14.2494 3.55608 14.4436 4.52526C14.6379 5.49442 14.5382 6.49902 14.1571 7.41218C13.776 8.32539 13.1303 9.10653 12.3011 9.65639Z" stroke="white"/>
<path d="M8.70833 13.0703H10.2917C12.4699 13.0703 14.5581 13.9291 16.0972 15.4566C17.6361 16.984 18.5 19.0548 18.5 21.2132C18.5 21.2877 18.4702 21.36 18.4159 21.4139C18.3615 21.4679 18.2869 21.4989 18.2083 21.4989H0.791667C0.713099 21.4989 0.638503 21.4679 0.584091 21.4139C0.529805 21.36 0.5 21.2877 0.5 21.2132C0.5 19.0548 1.36388 16.984 2.90283 15.4566C4.4419 13.9291 6.53014 13.0703 8.70833 13.0703Z" stroke="white"/>
</svg>
