<svg width="28" height="30" viewBox="0 0 28 30" fill="none" xmlns="http://www.w3.org/2000/svg">
<path d="M24.348 21.1413C22.4483 19.5438 21.359 17.2087 21.359 14.735V11.25C21.359 6.85125 18.0747 3.21 13.8205 2.6V1.25C13.8205 0.55875 13.2576 0 12.5641 0C11.8706 0 11.3077 0.55875 11.3077 1.25V2.6C7.05223 3.21 3.76923 6.85125 3.76923 11.25V14.735C3.76923 17.2087 2.67992 19.5437 0.768923 21.1512C0.28018 21.5675 0 22.1725 0 22.8125C0 24.0187 0.986282 25 2.19872 25H22.9295C24.1419 25 25.1282 24.0187 25.1282 22.8125C25.1282 22.1725 24.848 21.5675 24.348 21.1413Z" fill="#554AF0"/>
<path d="M12.5633 30C14.8387 30 16.7421 28.3863 17.1794 26.25H7.94727C8.3845 28.3863 10.288 30 12.5633 30Z" fill="#554AF0"/>
<ellipse cx="22.6151" cy="5.35714" rx="5.38462" ry="5.35714" fill="#BFBAFF"/>
</svg>
